<svg width="28" height="28" viewBox="0 0 28 28" fill="none" xmlns="http://www.w3.org/2000/svg">
<g clip-path="url(#clip0_25_8)">
<g clip-path="url(#clip1_25_8)">
<g clip-path="url(#clip2_25_8)">
<path d="M13.9146 23.5764C16.6302 23.5764 19.2347 22.4976 21.1549 20.5774C23.0752 18.6571 24.154 16.0527 24.154 13.337C24.154 10.6214 23.0752 8.01693 21.1549 6.09667C19.2347 4.17641 16.6302 3.09762 13.9146 3.09762C11.1989 3.09762 8.59448 4.17641 6.67422 6.09667C4.75396 8.01693 3.67517 10.6214 3.67517 13.337C3.67517 16.0527 4.75396 18.6571 6.67422 20.5774C8.59448 22.4976 11.1989 23.5764 13.9146 23.5764Z" fill="#FFD21E"/>
<path d="M24.154 13.337C24.154 10.6214 23.0752 8.01693 21.1549 6.09667C19.2347 4.17641 16.6302 3.09762 13.9146 3.09762C11.1989 3.09762 8.59447 4.17641 6.67421 6.09667C4.75395 8.01693 3.67516 10.6214 3.67516 13.337C3.67516 16.0527 4.75395 18.6571 6.67421 20.5774C8.59447 22.4976 11.1989 23.5764 13.9146 23.5764C16.6302 23.5764 19.2347 22.4976 21.1549 20.5774C23.0752 18.6571 24.154 16.0527 24.154 13.337ZM2.49652 13.337C2.49652 11.8376 2.79186 10.3528 3.36567 8.96753C3.93948 7.58223 4.78052 6.32351 5.84079 5.26325C6.90105 4.20299 8.15977 3.36194 9.54507 2.78813C10.9304 2.21432 12.4151 1.91898 13.9146 1.91898C15.414 1.91898 16.8988 2.21432 18.2841 2.78813C19.6694 3.36194 20.9281 4.20299 21.9883 5.26325C23.0486 6.32351 23.8896 7.58223 24.4635 8.96753C25.0373 10.3528 25.3326 11.8376 25.3326 13.337C25.3326 16.3653 24.1296 19.2695 21.9883 21.4108C19.847 23.5521 16.9428 24.7551 13.9146 24.7551C10.8863 24.7551 7.98208 23.5521 5.84079 21.4108C3.69949 19.2695 2.49652 16.3653 2.49652 13.337Z" fill="#FF9D0B"/>
<path d="M17.2413 10.5525C17.6185 10.6821 17.7658 11.4541 18.1459 11.2538C18.4033 11.1171 18.6144 10.9072 18.7524 10.6506C18.8905 10.394 18.9494 10.1022 18.9216 9.81208C18.8938 9.52199 18.7807 9.24666 18.5964 9.0209C18.4121 8.79515 18.1651 8.62911 17.8864 8.54378C17.6078 8.45846 17.3101 8.45769 17.031 8.54156C16.7519 8.62543 16.504 8.79018 16.3185 9.01498C16.1331 9.23978 16.0185 9.51452 15.9892 9.80445C15.9599 10.0944 16.0173 10.3865 16.154 10.6438C16.3338 10.9827 16.9054 10.4317 17.2442 10.5495L17.2413 10.5525ZM10.3021 10.5525C9.92492 10.6821 9.77464 11.4541 9.39748 11.2538C9.14009 11.1171 8.92901 10.9072 8.79093 10.6506C8.65286 10.394 8.59398 10.1022 8.62176 9.81208C8.64954 9.52199 8.76272 9.24666 8.94699 9.0209C9.13126 8.79515 9.37833 8.62911 9.65698 8.54378C9.93562 8.45846 10.2333 8.45769 10.5124 8.54156C10.7915 8.62543 11.0394 8.79018 11.2248 9.01498C11.4103 9.23978 11.5249 9.51452 11.5542 9.80445C11.5835 10.0944 11.5261 10.3865 11.3894 10.6438C11.2096 10.9827 10.635 10.4317 10.2991 10.5495L10.3021 10.5525Z" fill="#3A3B45"/>
<path d="M13.8409 17.6214C16.7374 17.6214 17.6715 15.0401 17.6715 13.7142C17.6715 13.0247 17.2089 13.2427 16.4663 13.6081C15.7798 13.947 14.8575 14.4155 13.8439 14.4155C11.7253 14.4155 10.0133 12.3882 10.0133 13.7142C10.0133 15.0401 10.9444 17.6214 13.8439 17.6214H13.8409Z" fill="#FF323D"/>
<path fill-rule="evenodd" clip-rule="evenodd" d="M11.6222 16.9466C11.7776 16.6306 11.9966 16.3501 12.2652 16.1225C12.5339 15.8948 12.8466 15.725 13.1839 15.6236C13.3017 15.5882 13.4225 15.7915 13.5492 16.0007C13.6671 16.2011 13.7909 16.4044 13.9146 16.4044C14.0472 16.4044 14.1798 16.2041 14.3065 16.0066C14.4391 15.8004 14.5688 15.6 14.6955 15.6383C15.3284 15.8393 15.8574 16.2804 16.1688 16.867C17.2678 16.0007 17.6715 14.5864 17.6715 13.7142C17.6715 13.0247 17.2089 13.2427 16.4664 13.6081L16.4251 13.6287C15.7444 13.9676 14.8369 14.4155 13.8409 14.4155C12.845 14.4155 11.9404 13.9676 11.2568 13.6287C10.4907 13.2486 10.0104 13.0099 10.0104 13.7142C10.0104 14.6129 10.4406 16.0891 11.6222 16.9466Z" fill="#3A3B45"/>
<path d="M20.839 11.9374C21.093 11.9374 21.3366 11.8365 21.5162 11.6569C21.6958 11.4773 21.7967 11.2337 21.7967 10.9798C21.7967 10.7258 21.6958 10.4822 21.5162 10.3026C21.3366 10.123 21.093 10.0221 20.839 10.0221C20.5851 10.0221 20.3415 10.123 20.1619 10.3026C19.9823 10.4822 19.8814 10.7258 19.8814 10.9798C19.8814 11.2337 19.9823 11.4773 20.1619 11.6569C20.3415 11.8365 20.5851 11.9374 20.839 11.9374ZM7.1374 11.9374C7.39138 11.9374 7.63496 11.8365 7.81456 11.6569C7.99415 11.4773 8.09504 11.2337 8.09504 10.9798C8.09504 10.7258 7.99415 10.4822 7.81456 10.3026C7.63496 10.123 7.39138 10.0221 7.1374 10.0221C6.88342 10.0221 6.63984 10.123 6.46025 10.3026C6.28065 10.4822 6.17976 10.7258 6.17976 10.9798C6.17976 11.2337 6.28065 11.4773 6.46025 11.6569C6.63984 11.8365 6.88342 11.9374 7.1374 11.9374ZM5.16613 15.1786C4.68879 15.1786 4.26448 15.3731 3.96687 15.7297C3.71309 16.0431 3.57474 16.4343 3.57497 16.8376C3.38944 16.7818 3.19706 16.752 3.00334 16.7492C2.54661 16.7492 2.13409 16.923 1.84238 17.2383C1.58212 17.5086 1.41804 17.857 1.37544 18.2297C1.33283 18.6025 1.41408 18.9789 1.60665 19.3009C1.34587 19.5138 1.16087 19.8053 1.07921 20.1319C1.00849 20.3971 0.937775 20.9569 1.31494 21.5285C1.17355 21.7459 1.08942 21.9955 1.07035 22.2541C1.05129 22.5127 1.09792 22.772 1.20591 23.0077C1.50647 23.6913 2.25785 24.2276 3.71641 24.8052C4.62101 25.1646 5.45195 25.3945 5.45785 25.3974C6.50753 25.6882 7.58947 25.8466 8.67847 25.8689C10.4052 25.8689 11.6398 25.3385 12.3499 24.2954C13.4932 22.6188 13.3311 21.0836 11.849 19.6044C11.0328 18.7853 10.4877 17.5801 10.3757 17.3149C10.1459 16.5311 9.53887 15.6589 8.53409 15.6589C8.26678 15.6632 8.00433 15.7311 7.76858 15.8572C7.53283 15.9833 7.33059 16.1638 7.17865 16.3838C6.884 16.0125 6.59523 15.7208 6.33593 15.5529C5.98991 15.3186 5.58387 15.1887 5.16613 15.1786ZM5.16613 16.3573C5.31641 16.3573 5.50204 16.4221 5.70241 16.5488C6.33298 16.9495 7.54403 19.0328 7.98897 19.8431C8.1363 20.1142 8.39265 20.2291 8.61954 20.2291C9.07626 20.2291 9.42985 19.7783 8.66374 19.2037C7.50867 18.3403 7.91236 16.9289 8.46337 16.8435C8.48694 16.8376 8.51346 16.8376 8.53409 16.8376C9.03501 16.8376 9.256 17.7009 9.256 17.7009C9.256 17.7009 9.90425 19.3274 11.0181 20.4413C12.1289 21.5521 12.1879 22.4449 11.3775 23.6324C10.8236 24.4427 9.76576 24.6873 8.67847 24.6873C7.55582 24.6873 6.40075 24.4221 5.75545 24.2571C5.72304 24.2483 1.79229 23.1374 2.29026 22.1945C2.37276 22.0354 2.51125 21.9705 2.6851 21.9705C3.38639 21.9705 4.65932 23.0136 5.21033 23.0136C5.33114 23.0136 5.41659 22.9635 5.4549 22.8368C5.68768 21.9971 1.90131 21.6435 2.21954 20.4295C2.27847 20.2144 2.42875 20.1289 2.64385 20.1289C3.56908 20.1289 5.64937 21.7584 6.08547 21.7584C6.11788 21.7584 6.1444 21.7495 6.15619 21.7289C6.37424 21.3753 6.25342 21.1278 4.71236 20.1967C3.17718 19.2656 2.09579 18.7057 2.70868 18.0368C2.77939 17.9602 2.87958 17.9249 3.00334 17.9249C3.9374 17.9249 6.1444 19.9344 6.1444 19.9344C6.1444 19.9344 6.73961 20.5532 7.10204 20.5532C7.18455 20.5532 7.25527 20.5238 7.30241 20.4413C7.55582 20.0111 4.92746 18.0192 4.78013 17.1971C4.67994 16.6372 4.85085 16.3573 5.16613 16.3573Z" fill="#FF9D0B"/>
<path d="M11.3776 23.6324C12.1879 22.442 12.129 21.5492 11.0181 20.4383C9.90428 19.3274 9.25603 17.698 9.25603 17.698C9.25603 17.698 9.01441 16.7551 8.4634 16.8435C7.91238 16.9319 7.5087 18.3403 8.66376 19.2037C9.81588 20.067 8.43393 20.6534 7.98899 19.8431C7.54701 19.0328 6.33301 16.9495 5.70244 16.5488C5.07482 16.151 4.63283 16.372 4.78016 17.1971C4.92749 18.0192 7.55879 20.011 7.30244 20.4383C7.04609 20.8715 6.14443 19.9344 6.14443 19.9344C6.14443 19.9344 3.32454 17.368 2.7087 18.0368C2.09581 18.7057 3.17721 19.2656 4.71238 20.1967C6.25345 21.1278 6.37426 21.3753 6.15621 21.7289C5.93522 22.0825 2.5378 19.2155 2.21957 20.4324C1.90134 21.6435 5.68771 21.9941 5.45493 22.8339C5.2192 23.6737 2.78531 21.2486 2.29029 22.1915C1.78937 23.1374 5.72307 24.2482 5.75548 24.2571C7.02251 24.5871 10.249 25.2854 11.3776 23.6324Z" fill="#FFD21E"/>
<path d="M22.8103 15.1786C23.2877 15.1786 23.7149 15.3731 24.0096 15.7297C24.2634 16.0431 24.4017 16.4343 24.4015 16.8376C24.588 16.7815 24.7814 16.7518 24.9761 16.7492C25.4328 16.7492 25.8453 16.923 26.137 17.2383C26.3973 17.5086 26.5614 17.857 26.604 18.2297C26.6466 18.6025 26.5653 18.9789 26.3728 19.3009C26.6324 19.5143 26.8164 19.8057 26.8972 20.1319C26.968 20.3971 27.0387 20.9569 26.6615 21.5285C26.8029 21.7459 26.887 21.9955 26.9061 22.2541C26.9252 22.5127 26.8785 22.772 26.7705 23.0077C26.47 23.6913 25.7186 24.2276 24.263 24.8052C23.3554 25.1646 22.5245 25.3945 22.5186 25.3974C21.4689 25.6882 20.387 25.8466 19.298 25.8689C17.5713 25.8689 16.3367 25.3385 15.6265 24.2954C14.4833 22.6188 14.6453 21.0836 16.1275 19.6044C16.9466 18.7853 17.4917 17.5801 17.6037 17.3149C17.8335 16.5311 18.4376 15.6589 19.4424 15.6589C19.7097 15.6632 19.9721 15.7311 20.2079 15.8572C20.4436 15.9833 20.6459 16.1638 20.7978 16.3838C21.0925 16.0125 21.3812 15.7208 21.6435 15.5529C21.9887 15.3191 22.3936 15.1893 22.8103 15.1786ZM22.8103 16.3573C22.6601 16.3573 22.4774 16.4221 22.274 16.5488C21.6464 16.9495 20.4324 19.0328 19.9875 19.8431C19.9274 19.9587 19.837 20.0558 19.7259 20.1238C19.6148 20.1918 19.4872 20.2282 19.3569 20.2291C18.9031 20.2291 18.5466 19.7783 19.3157 19.2037C20.4678 18.3403 20.0641 16.9289 19.5131 16.8435C19.4897 16.8397 19.4661 16.8377 19.4424 16.8376C18.9415 16.8376 18.7205 17.7009 18.7205 17.7009C18.7205 17.7009 18.0722 19.3274 16.9613 20.4413C15.8475 21.5521 15.7886 22.4449 16.6019 23.6324C17.1529 24.4427 18.2136 24.6873 19.298 24.6873C20.4236 24.6873 21.5757 24.4221 22.224 24.2571C22.2534 24.2482 26.1871 23.1374 25.6891 22.1945C25.6037 22.0354 25.4682 21.9705 25.2943 21.9705C24.593 21.9705 23.3171 23.0136 22.7691 23.0136C22.6453 23.0136 22.5599 22.9635 22.5245 22.8368C22.2888 21.9971 26.0751 21.6435 25.7569 20.4295C25.7009 20.2144 25.5507 20.1289 25.3326 20.1289C24.4074 20.1289 22.3271 21.7584 21.891 21.7584C21.8615 21.7584 21.835 21.7495 21.8232 21.7289C21.6052 21.3753 21.723 21.1278 23.2612 20.1967C24.8022 19.2656 25.8836 18.7057 25.2648 18.0368C25.1971 17.9602 25.0969 17.9249 24.9761 17.9249C24.0391 17.9249 21.8321 19.9344 21.8321 19.9344C21.8321 19.9344 21.2368 20.5532 20.8774 20.5532C20.8369 20.555 20.7966 20.5455 20.7613 20.5257C20.7259 20.506 20.6967 20.4767 20.677 20.4413C20.4206 20.0111 23.049 18.0192 23.1963 17.1971C23.2965 16.6372 23.1256 16.3573 22.8103 16.3573Z" fill="#FF9D0B"/>
<path d="M16.6019 23.6324C15.7916 22.442 15.8476 21.5492 16.9614 20.4383C18.0722 19.3274 18.7205 17.698 18.7205 17.698C18.7205 17.698 18.9621 16.7551 19.5161 16.8435C20.0641 16.9319 20.4678 18.3403 19.3157 19.2037C18.1606 20.067 19.5455 20.6534 19.9875 19.8431C20.4324 19.0328 21.6464 16.9495 22.2741 16.5488C22.9017 16.151 23.3466 16.372 23.1964 17.1971C23.049 18.0192 20.4207 20.011 20.677 20.4383C20.9304 20.8715 21.8321 19.9344 21.8321 19.9344C21.8321 19.9344 24.6549 17.368 25.2678 18.0368C25.8807 18.7057 24.8022 19.2656 23.2641 20.1967C21.7231 21.1278 21.6052 21.3753 21.8203 21.7289C22.0413 22.0825 25.4387 19.2155 25.7569 20.4324C26.0752 21.6435 22.2917 21.9941 22.5245 22.8339C22.7603 23.6737 25.1912 21.2486 25.6892 22.1915C26.1871 23.1374 22.2564 24.2482 22.224 24.2571C20.954 24.5871 17.7275 25.2854 16.6019 23.6324Z" fill="#FFD21E"/>
</g>
</g>
</g>
<defs>
<clipPath id="clip0_25_8">
<rect width="28" height="25.93" fill="white" transform="translate(0 1.035)"/>
</clipPath>
<clipPath id="clip1_25_8">
<rect width="28" height="25.93" fill="white" transform="translate(0 1.035)"/>
</clipPath>
<clipPath id="clip2_25_8">
<rect width="27.9926" height="25.93" fill="white" transform="translate(0.00372314 1.035)"/>
</clipPath>
</defs>
</svg>
